<svg version="1.1" id="Layer_1" xmlns="http://www.w3.org/2000/svg" xmlns:xlink="http://www.w3.org/1999/xlink" x="0px" y="0px"
	 width="100%" viewBox="0 0 3754 1122" enable-background="new 0 0 3754 1122" xml:space="preserve">
<path fill="#FEFEFE" opacity="1.000000" stroke="none" 
	d="
M3756.000000,296.000000 
	C3756.000000,571.942688 3756.000000,847.885315 3756.000000,1124.000000 
	C2710.607910,1124.000000 1665.215820,1124.000000 618.822266,1123.513184 
	C617.820801,1123.026367 618.031372,1122.059082 618.870850,1121.883057 
	C623.643860,1121.250244 627.575378,1120.774780 631.511230,1120.339111 
	C673.910767,1115.647217 715.094238,1105.720337 755.144226,1091.159546 
	C841.114929,1059.903564 915.088684,1010.395874 977.060120,943.270081 
	C1015.848083,901.255981 1047.319092,854.137451 1071.740479,802.304993 
	C1101.358276,739.443176 1118.519531,673.271179 1123.380981,604.151245 
	C1125.943726,567.714783 1125.141113,531.144470 1120.489502,494.697449 
	C1115.088867,452.382812 1105.454346,411.225586 1090.859863,371.153442 
	C1064.683960,299.282562 1025.256714,235.533142 973.086365,179.768967 
	C937.922791,142.183090 898.208069,110.030968 854.025024,83.442230 
	C814.562073,59.693958 772.897583,41.086308 728.890991,27.434355 
	C686.870605,14.398602 643.866150,7.216356 600.140869,3.284286 
	C600.144653,2.852136 600.000000,2.000000 600.000000,2.000000 
	C1652.000000,2.000000 2704.000000,2.000000 3756.000000,2.000000 
	C3756.000000,94.887390 3756.000000,187.531799 3755.117676,280.737488 
	C3719.218994,284.266144 3684.203369,282.639496 3648.767334,281.093567 
	C3648.767334,284.795410 3648.767334,288.306519 3648.767334,291.595886 
	C3650.106934,292.261444 3650.957520,292.878326 3651.904541,293.126068 
	C3676.914551,299.667419 3689.795410,313.824066 3691.901123,338.825623 
	C3693.296875,355.397614 3693.279785,372.147888 3688.611816,388.334686 
	C3682.819336,408.420868 3676.520020,428.362854 3670.276367,448.316101 
	C3666.176514,461.418152 3661.788086,474.429840 3657.265869,488.287476 
	C3656.010010,486.167572 3655.198242,485.098511 3654.692139,483.900482 
	C3630.915283,427.620819 3607.122559,371.347809 3583.444336,315.026672 
	C3578.113037,302.346100 3582.487549,295.406586 3596.396729,293.894836 
	C3603.246582,293.150360 3610.112305,292.554840 3617.102539,291.879211 
	C3617.102539,287.858704 3617.102539,284.380707 3617.102539,280.562347 
	C3555.938721,285.696503 3495.351318,285.121094 3434.209473,280.691437 
	C3434.209473,284.996063 3434.209473,289.192017 3434.209473,293.847137 
	C3451.136475,296.103638 3459.451416,308.404022 3465.807129,322.335022 
	C3486.069336,366.748627 3505.986084,411.319733 3526.123779,455.790405 
	C3550.647949,509.947815 3574.827393,564.269348 3600.162842,618.045410 
	C3605.965576,630.361572 3604.996582,640.601868 3599.412598,651.699280 
	C3598.964600,652.589600 3598.481934,653.462952 3598.049805,654.360718 
	C3585.557129,680.326904 3565.979736,692.693298 3533.099854,687.161133 
	C3544.928955,681.898865 3554.032471,674.730835 3560.422363,664.248169 
	C3573.787842,642.322632 3565.553955,613.854309 3541.953857,603.921448 
	C3521.441895,595.288391 3500.300781,595.814514 3480.054199,604.827209 
	C3456.229492,615.432556 3449.972168,636.527161 3456.181641,659.586426 
	C3460.270996,674.771484 3471.966553,683.853333 3485.613281,690.251343 
	C3511.662354,702.463928 3539.033691,702.955505 3566.564941,697.442261 
	C3583.198730,694.111328 3596.647217,685.062439 3604.780029,669.565186 
	C3608.635010,662.219055 3612.658203,654.846863 3615.434570,647.068665 
	C3626.598877,615.791626 3637.512939,584.421204 3648.139160,552.956909 
	C3670.779297,485.918823 3693.135254,418.784698 3715.721680,351.728302 
	C3720.500977,337.538147 3725.760986,323.439484 3735.487549,311.741760 
	C3741.063721,305.035248 3746.544922,297.821533 3756.000000,296.000000 
M2887.740967,450.784180 
	C2893.210449,430.160797 2898.679688,409.537415 2904.148926,388.914032 
	C2904.664795,388.942871 2905.180908,388.971741 2905.696777,389.000580 
	C2928.717529,455.770935 2951.738281,522.541321 2974.518799,588.614624 
	C2994.525146,588.614624 3013.600830,588.614624 3033.434326,588.614624 
	C3034.074463,586.751892 3034.981689,584.303711 3035.760742,581.815491 
	C3041.115967,564.712036 3046.461914,547.605591 3051.778320,530.490051 
	C3065.856689,485.165863 3079.813477,439.803406 3094.036133,394.524536 
	C3100.301758,374.577332 3106.704346,354.655182 3113.784424,334.987823 
	C3118.665283,321.428833 3125.737549,308.951050 3138.052734,300.440948 
	C3141.806885,297.846863 3145.817139,295.623260 3149.161621,293.567078 
	C3149.161621,288.889130 3149.161621,284.985199 3149.161621,280.747925 
	C3110.729248,283.519226 3072.792969,282.615906 3034.961914,280.513397 
	C3034.961914,285.539612 3034.961914,289.382050 3034.961914,293.153870 
	C3036.869873,293.592285 3038.153564,293.931549 3039.454590,294.179626 
	C3060.063477,298.108398 3073.249023,310.350647 3079.257080,330.254791 
	C3084.170654,346.533569 3083.955322,363.356659 3080.671387,379.639008 
	C3076.550537,400.067932 3070.596436,420.145782 3064.982422,440.249084 
	C3060.059814,457.876556 3054.513428,475.329865 3049.242676,492.860107 
	C3048.642090,492.896210 3048.041748,492.932281 3047.441162,492.968384 
	C3025.424561,422.168091 3003.407959,351.367798 2981.530029,281.013062 
	C2959.365723,281.013062 2938.269775,281.013062 2916.494629,281.013062 
	C2900.034668,345.250916 2883.560791,409.542358 2866.588379,475.778961 
	C2865.137939,472.795135 2864.454590,471.765869 2864.113770,470.633484 
	C2852.250000,431.234375 2840.386963,391.835114 2828.600342,352.412903 
	C2824.608643,339.061615 2820.581055,325.712555 2817.025391,312.242218 
	C2814.635986,303.188873 2817.760498,298.301422 2826.704102,295.832947 
	C2829.544434,295.048981 2832.522705,294.686768 2835.463379,294.361969 
	C2840.296143,293.828278 2845.149658,293.482605 2849.667480,293.086334 
	C2849.667480,288.450958 2849.667480,284.612305 2849.667480,279.903625 
	C2788.797852,285.704773 2728.583008,284.083466 2668.010498,280.259827 
	C2668.010498,285.291138 2668.010498,289.201782 2668.010498,293.948792 
	C2686.736572,295.530365 2694.624268,308.950653 2700.421143,324.530060 
	C2700.768311,325.462494 2701.329590,326.316925 2701.656738,327.254639 
	C2726.160889,397.472382 2750.651123,467.695099 2775.144043,537.916809 
	C2781.136475,555.096985 2787.134521,572.275085 2792.853027,588.660767 
	C2812.814697,588.660767 2831.878174,588.660767 2851.518799,588.660767 
	C2863.453369,543.417053 2875.456299,497.914215 2887.740967,450.784180 
M2165.229248,274.475983 
	C2163.285400,274.891968 2161.360596,275.505432 2159.394775,275.693787 
	C2135.979004,277.937103 2112.596924,280.949829 2089.125244,282.062744 
	C2068.608398,283.035583 2047.989014,281.852325 2026.899658,281.615814 
	C2026.899658,285.669220 2026.899658,290.488068 2026.899658,295.188782 
	C2048.332520,299.563202 2055.718994,307.345459 2057.881836,328.303131 
	C2058.901855,338.188416 2059.553223,348.158081 2059.581299,358.091736 
	C2059.739502,414.089569 2059.737549,470.088379 2059.570312,526.086182 
	C2059.545654,534.346863 2058.755127,542.660156 2057.613037,550.850708 
	C2055.610107,565.215027 2048.823486,571.538696 2034.247437,573.688599 
	C2031.715332,574.062012 2029.216797,574.662109 2027.042480,575.090576 
	C2027.042480,580.271301 2027.042480,584.750244 2027.042480,588.679199 
	C2082.795410,588.679199 2137.831543,588.679199 2193.124023,588.679199 
	C2193.124023,584.431885 2193.124023,580.304016 2193.124023,576.304810 
	C2190.309326,575.707520 2188.065918,575.027344 2185.776123,574.781067 
	C2176.131348,573.743469 2170.974121,567.651428 2168.868652,558.957886 
	C2167.399902,552.893372 2166.463623,546.537598 2166.447021,540.308777 
	C2166.276367,476.311188 2166.332764,412.312958 2166.347412,348.314880 
	C2166.352539,325.794464 2180.245605,308.990448 2202.341064,304.687714 
	C2218.855713,301.471771 2232.256348,310.270020 2235.532959,326.722656 
	C2236.241211,330.279602 2236.293457,334.008606 2236.295898,337.658569 
	C2236.337891,405.989807 2236.335449,474.321075 2236.301514,542.652344 
	C2236.299805,545.971680 2236.154541,549.324341 2235.681641,552.604492 
	C2233.375244,568.592224 2228.349365,573.517090 2212.245605,575.953857 
	C2211.711182,576.034851 2211.258789,576.656189 2210.783691,577.013855 
	C2210.783691,580.932129 2210.783691,584.814392 2210.783691,588.679199 
	C2266.812012,588.679199 2322.381592,588.679199 2377.973633,588.679199 
	C2377.973633,584.340698 2377.973633,580.416504 2377.973633,575.655701 
	C2375.755615,575.655701 2373.824219,575.806885 2371.923096,575.631714 
	C2357.188721,574.273865 2350.455078,568.464294 2347.587402,553.934937 
	C2346.440186,548.121216 2345.766846,542.113464 2345.752930,536.191956 
	C2345.619629,479.194000 2345.900879,422.193970 2345.499023,365.198547 
	C2345.408447,352.344269 2343.994629,339.345428 2341.670166,326.692322 
	C2336.598877,299.085571 2320.097168,281.924500 2292.390869,275.722290 
	C2272.320312,271.229279 2252.206787,271.353882 2232.113525,274.815094 
	C2206.625977,279.205475 2184.993896,290.395294 2169.647949,312.006836 
	C2169.502441,312.211914 2168.594727,311.875732 2166.880371,311.616486 
	C2166.880371,299.514954 2166.880371,287.238556 2165.229248,274.475983 
M1684.345947,522.507812 
	C1684.345947,491.337616 1684.345947,460.167419 1684.345947,428.317169 
	C1683.082275,428.317169 1681.159180,428.274902 1679.238770,428.328094 
	C1676.942871,428.391663 1674.649170,428.536926 1672.436890,428.642822 
	C1671.757202,430.140594 1670.959961,431.299286 1670.694214,432.569183 
	C1662.194580,473.193268 1643.853027,508.873016 1616.190552,539.662109 
	C1591.454346,567.194214 1561.068237,580.364929 1523.625610,574.153687 
	C1516.846558,573.029114 1511.678955,569.434692 1509.957764,562.672607 
	C1508.584229,557.276794 1507.774048,551.580872 1507.767700,546.016968 
	C1507.644287,438.386932 1507.665771,330.756714 1507.711792,223.126526 
	C1507.713745,218.479340 1507.801514,213.756546 1508.595093,209.198883 
	C1511.552979,192.213135 1518.244263,186.005554 1535.532471,183.718048 
	C1542.014160,182.860413 1548.514282,182.141815 1555.319946,181.322021 
	C1555.458862,178.401199 1555.653076,176.127075 1555.645752,173.853577 
	C1555.640625,172.262833 1555.359985,170.672989 1555.188965,168.947769 
	C1484.663086,170.949219 1414.677124,170.923965 1344.335815,169.013748 
	C1344.335815,173.094940 1344.335815,177.179520 1344.335815,181.429230 
	C1351.837402,182.494202 1358.723022,183.332611 1365.557739,184.475037 
	C1375.492432,186.135605 1381.821289,192.060242 1383.584717,201.895508 
	C1385.041504,210.021469 1386.196411,218.334045 1386.210449,226.566116 
	C1386.384277,328.198059 1386.368774,429.830475 1386.232910,531.462524 
	C1386.222778,539.042725 1385.137573,546.649475 1384.163574,554.193726 
	C1382.762573,565.045715 1376.242065,571.594116 1365.747192,573.836609 
	C1358.700195,575.342346 1351.477173,576.024048 1344.147949,577.101624 
	C1344.147949,581.198730 1344.147949,585.033020 1344.147949,589.261414 
	C1458.923950,587.433350 1573.207397,586.699036 1688.109009,589.086609 
	C1686.839844,567.268921 1685.593140,545.837402 1684.345947,522.507812 
M3236.099609,437.131317 
	C3217.923584,443.525726 3199.672852,449.664276 3183.668213,460.943909 
	C3167.775391,472.144867 3156.685303,486.642151 3153.070557,505.881500 
	C3151.552246,513.962463 3151.442871,522.449890 3151.770752,530.709717 
	C3152.802002,556.684998 3165.261230,575.317444 3189.022217,586.124023 
	C3201.748291,591.911926 3215.280518,592.472229 3229.024170,592.440125 
	C3251.833740,592.386963 3272.216553,585.574280 3289.992676,571.454651 
	C3297.131104,565.784485 3303.489258,559.131653 3309.943604,553.165833 
	C3309.966064,553.251892 3310.232666,554.196167 3310.462646,555.149414 
	C3315.360352,575.475830 3328.251465,587.268738 3348.771484,590.617249 
	C3369.638916,594.022461 3390.541992,593.463440 3411.138916,589.016296 
	C3424.793701,586.067993 3437.770996,580.949829 3448.682373,570.565186 
	C3446.621826,567.080200 3444.659180,563.761169 3442.616699,560.306946 
	C3438.233887,562.692993 3434.591797,564.971863 3430.712646,566.726379 
	C3422.489990,570.445374 3418.205811,568.272217 3416.498047,559.355042 
	C3415.753662,555.468323 3415.710693,551.407104 3415.707275,547.424805 
	C3415.659424,494.436768 3415.811279,441.448151 3415.583740,388.461090 
	C3415.523926,374.536530 3414.711426,360.586945 3413.596436,346.700867 
	C3410.907715,313.214417 3392.840088,291.810272 3361.400146,280.828888 
	C3340.966553,273.691803 3319.627686,273.643250 3298.542725,272.744629 
	C3284.764648,272.157440 3270.786621,274.199249 3257.016602,275.979736 
	C3237.801758,278.464233 3219.249023,283.715179 3202.224365,293.217743 
	C3186.015869,302.264893 3173.600586,314.742950 3169.080566,333.494843 
	C3163.352295,357.260498 3172.774414,381.122955 3191.653809,392.659943 
	C3202.683350,399.399872 3214.687256,399.193268 3226.518555,398.107361 
	C3248.758301,396.066040 3268.912354,381.551300 3272.927002,358.209625 
	C3276.664551,336.478180 3270.308105,313.681824 3245.837646,300.141876 
	C3242.873779,298.502014 3239.878662,296.918671 3236.898193,295.309113 
	C3236.906738,294.581421 3236.915527,293.853760 3236.924072,293.126099 
	C3245.118408,290.761230 3253.172852,287.359680 3261.534180,286.232147 
	C3283.771729,283.233337 3299.885986,294.279694 3305.715820,315.723480 
	C3307.097900,320.807922 3308.108154,326.156311 3308.193359,331.401154 
	C3308.490967,349.725372 3308.413086,368.058258 3308.260254,386.386047 
	C3308.193359,394.427826 3304.890869,401.311981 3298.811279,406.522614 
	C3294.549316,410.175812 3290.167480,414.106567 3285.144531,416.377411 
	C3269.450928,423.472748 3253.427246,429.838776 3236.099609,437.131317 
M1961.363159,307.789673 
	C1952.082642,295.423401 1939.601562,287.545532 1925.435669,281.924500 
	C1904.297607,273.536835 1881.854004,273.666199 1859.783813,272.723785 
	C1845.682007,272.121613 1831.372925,274.342773 1817.273926,276.192627 
	C1796.702881,278.891571 1776.890381,284.524139 1759.188477,295.753784 
	C1742.805786,306.146576 1731.192627,320.131805 1728.741577,340.188477 
	C1726.620728,357.542816 1733.007812,382.488708 1754.221924,393.495911 
	C1762.839111,397.967041 1771.959473,398.118378 1781.331909,398.466705 
	C1805.528564,399.365967 1837.027954,380.064667 1834.593018,345.394592 
	C1833.153809,324.900635 1824.572754,310.072998 1806.903442,300.176331 
	C1803.932983,298.512543 1800.862427,297.027374 1797.197144,295.127411 
	C1805.985474,289.444153 1814.489746,286.725525 1823.511841,285.868408 
	C1844.277344,283.895630 1859.186401,293.214447 1865.639893,312.928772 
	C1867.976562,320.066650 1869.210205,327.808075 1869.486206,335.327698 
	C1870.060669,350.972656 1869.420288,366.658295 1869.738892,382.317841 
	C1869.975342,393.934570 1865.295410,402.789581 1856.427246,409.867859 
	C1846.142822,418.076569 1834.262573,423.224396 1822.124390,427.829498 
	C1803.814209,434.776276 1785.298218,441.198761 1767.123291,448.477539 
	C1753.433838,453.960052 1741.044312,461.935699 1730.997559,472.836243 
	C1716.455200,488.614685 1711.638794,507.715485 1712.199463,528.887207 
	C1712.877197,554.475159 1727.422485,576.369751 1751.084473,586.516541 
	C1764.356812,592.207947 1778.164307,592.621582 1792.177124,592.344543 
	C1817.921875,591.835571 1840.134888,582.744019 1858.607910,564.797974 
	C1862.821655,560.704407 1866.551514,556.113037 1871.067383,551.129089 
	C1874.400269,575.133606 1889.133057,587.892456 1911.052002,590.911011 
	C1936.844360,594.463013 1962.864014,594.106812 1987.662109,584.108154 
	C1995.576904,580.916809 2003.511719,577.445251 2009.564819,570.305054 
	C2007.485229,566.856567 2005.511597,563.583679 2003.460083,560.181824 
	C1998.982544,562.873840 1995.453735,565.491211 1991.537720,567.243286 
	C1984.131714,570.556885 1979.304810,567.963196 1977.843994,559.932007 
	C1976.960083,555.072083 1976.424683,550.079468 1976.399780,545.143127 
	C1976.086182,482.829071 1976.161377,420.511597 1975.497925,358.201752 
	C1975.314087,340.919403 1972.706421,323.748322 1961.363159,307.789673 
M2514.341553,415.330750 
	C2514.341553,412.420654 2514.341553,409.510529 2514.341553,405.682312 
	C2525.487549,405.682312 2535.729736,405.682312 2545.971924,405.682312 
	C2555.966064,405.682312 2565.960449,405.682312 2575.954590,405.682312 
	C2586.281982,405.682312 2596.609131,405.682312 2606.936523,405.682312 
	C2616.930664,405.682312 2626.925049,405.702972 2636.919189,405.676544 
	C2647.080078,405.649658 2657.241211,405.576355 2667.653320,405.522064 
	C2667.891357,379.620880 2665.202637,355.622986 2655.989502,332.856171 
	C2643.855469,302.870422 2622.384521,283.035950 2590.379150,275.811615 
	C2558.564453,268.630249 2527.055664,270.890747 2496.188965,280.801605 
	C2465.592773,290.625641 2441.899414,309.368958 2425.138672,337.082611 
	C2410.467773,361.340851 2404.198242,388.052155 2402.612305,415.681702 
	C2400.918213,445.198608 2402.022461,474.782593 2409.975342,503.655945 
	C2415.993408,525.505249 2425.381348,545.729065 2442.060059,561.307190 
	C2477.865967,594.750244 2520.937256,603.025269 2567.815918,594.367676 
	C2594.226074,589.490234 2615.518555,575.165527 2632.838867,554.718994 
	C2647.421387,537.504456 2656.936035,517.698975 2664.535400,496.038116 
	C2660.576416,494.415741 2657.309082,493.076843 2654.602295,491.967651 
	C2653.487793,492.512543 2653.108154,492.585236 2652.907959,492.814636 
	C2651.826660,494.053894 2650.779785,495.323547 2649.739746,496.597931 
	C2637.265869,511.883545 2622.286377,523.363708 2602.917969,528.780090 
	C2569.669434,538.078064 2538.721191,523.884949 2524.978516,492.430664 
	C2514.480713,468.403717 2513.414795,442.962463 2514.341553,415.330750 
M1681.737183,837.000061 
	C1681.737183,794.787354 1681.737183,752.574646 1681.737183,710.099243 
	C1677.900879,710.099243 1675.094971,710.099243 1671.593262,710.099243 
	C1671.593262,725.845337 1671.593384,741.106384 1671.593384,756.367493 
	C1671.593384,771.882935 1671.593262,787.398376 1671.593262,802.913818 
	C1656.524780,785.921814 1639.647583,774.316162 1617.147339,772.096680 
	C1594.908569,769.903076 1574.757080,774.751343 1557.825684,789.653809 
	C1530.505371,813.700500 1525.753784,861.561279 1547.816162,891.627930 
	C1552.440918,897.930420 1558.408813,903.669556 1564.834839,908.109131 
	C1571.259155,912.547607 1578.774292,915.914551 1586.289429,918.124634 
	C1593.795898,920.332153 1601.930542,921.572937 1609.724976,921.310974 
	C1617.874634,921.036987 1626.292603,919.417419 1633.954224,916.629517 
	C1641.300293,913.956421 1648.303467,909.660522 1654.576050,904.913330 
	C1660.580200,900.369324 1665.450928,894.327637 1672.175781,887.584595 
	C1672.175781,899.821655 1672.175781,910.016785 1672.175781,920.710266 
	C1675.762085,920.279175 1678.569092,919.941711 1681.737183,919.560852 
	C1681.737183,892.230042 1681.737183,865.615051 1681.737183,837.000061 
M2163.599365,900.056152 
	C2163.599365,906.622986 2163.599365,913.189819 2163.599365,920.335999 
	C2167.062744,920.147217 2169.498535,920.014404 2172.106689,919.872192 
	C2172.231689,917.893494 2172.384521,916.600403 2172.385010,915.307190 
	C2172.399658,883.993530 2172.416016,852.679810 2172.370117,821.366211 
	C2172.365723,818.382507 2172.205811,815.355591 2171.691895,812.423462 
	C2168.735840,795.555969 2160.466064,782.143677 2143.830811,776.455017 
	C2112.936523,765.890381 2086.018799,774.956299 2060.935303,794.997864 
	C2063.243652,797.866272 2065.030273,800.086243 2066.903320,802.413635 
	C2071.319824,799.436218 2075.116455,796.773315 2079.014160,794.267334 
	C2094.030029,784.612671 2110.231201,779.747864 2128.221680,782.314331 
	C2146.086670,784.862976 2158.512207,794.743591 2161.291260,810.656677 
	C2162.785156,819.210510 2161.556641,828.239685 2161.556641,837.599976 
	C2145.283936,837.599976 2129.674316,837.521973 2114.065918,837.626099 
	C2102.762207,837.701538 2091.466797,838.289856 2080.706543,842.191284 
	C2069.319092,846.320129 2060.201660,853.024353 2056.052979,865.077332 
	C2048.649902,886.584900 2061.684570,911.024536 2084.462158,917.750427 
	C2100.251709,922.412903 2116.010742,921.303528 2131.526611,916.255127 
	C2142.498535,912.685120 2151.862305,906.525024 2159.410889,897.756592 
	C2161.295166,895.567932 2162.732910,894.015686 2163.599365,900.056152 
M2511.670654,799.416016 
	C2509.616943,797.233215 2507.556641,795.056641 2505.510742,792.866577 
	C2480.873779,766.490112 2431.857910,765.229858 2404.679932,789.513367 
	C2389.915283,802.705383 2382.333496,819.241699 2380.597656,838.253967 
	C2378.448486,861.788452 2384.611816,883.223755 2401.784424,900.317688 
	C2418.796387,917.251892 2439.989258,922.558167 2463.232178,920.019592 
	C2483.298340,917.827942 2499.722168,908.642944 2512.048096,892.333862 
	C2532.192871,865.679871 2530.263184,823.654846 2511.670654,799.416016 
M1488.921387,911.665161 
	C1453.701416,911.665161 1418.481567,911.665161 1382.868408,911.665161 
	C1382.868408,881.495422 1382.868408,852.370789 1382.868408,822.302002 
	C1417.877808,822.302002 1452.370239,822.302002 1487.612671,822.302002 
	C1487.380859,818.917908 1487.217285,816.528259 1486.991089,813.226501 
	C1451.852417,813.226501 1417.370483,813.226501 1383.047852,813.226501 
	C1383.047852,785.130005 1383.047852,758.002075 1383.047852,730.244751 
	C1422.302979,730.244751 1460.850586,730.244751 1499.820068,730.244751 
	C1499.820068,727.178345 1499.820068,724.758545 1499.820068,722.323608 
	C1457.558594,722.323608 1415.797852,722.323608 1374.106445,722.323608 
	C1374.106445,788.496643 1374.106445,854.010254 1374.106445,919.765137 
	C1417.654663,919.765137 1460.759766,919.765137 1504.448975,919.765137 
	C1504.114990,916.709412 1503.849731,914.282349 1503.563721,911.665161 
	C1498.871338,911.665161 1494.887939,911.665161 1488.921387,911.665161 
M2568.259521,797.040039 
	C2568.259521,837.952454 2568.259521,878.864868 2568.259521,919.952881 
	C2571.810791,919.952881 2574.349121,919.952881 2577.338135,919.952881 
	C2577.485840,916.930664 2577.719971,914.326294 2577.723389,911.721680 
	C2577.752930,889.058105 2577.106689,866.372864 2577.879639,843.735657 
	C2579.282227,802.665588 2605.048340,780.396423 2641.714111,781.839355 
	C2666.317627,782.807556 2683.379395,797.192932 2686.309082,820.520325 
	C2686.802246,824.445435 2687.517822,828.385376 2687.533936,832.320862 
	C2687.642578,858.983459 2687.575439,885.646729 2687.614258,912.309692 
	C2687.618164,914.863464 2687.956787,917.416687 2688.177490,920.490356 
	C2691.256592,920.183472 2693.698486,919.940186 2696.402344,919.670715 
	C2696.402344,886.353699 2696.980957,853.700378 2696.158936,821.082397 
	C2695.746338,804.715454 2687.953125,791.253235 2674.003174,781.742737 
	C2661.192383,773.009033 2646.771729,771.374878 2632.024170,772.378845 
	C2611.589355,773.769958 2594.009521,781.298828 2581.865723,798.800049 
	C2581.072266,799.943115 2580.064697,800.937500 2577.541016,803.893738 
	C2577.541016,791.891541 2577.541016,782.400452 2577.541016,772.771118 
	C2574.130371,772.771118 2571.629639,772.771118 2568.259521,772.771118 
	C2568.259521,780.518188 2568.259521,787.789856 2568.259521,797.040039 
M1735.615112,785.225037 
	C1735.615112,805.551636 1735.551758,825.878540 1735.645752,846.204712 
	C1735.684326,854.520813 1735.593994,862.880188 1736.382324,871.141541 
	C1738.163330,889.806824 1746.262573,905.020752 1763.347778,913.866150 
	C1785.902954,925.543579 1829.833862,924.657410 1849.669922,892.957336 
	C1850.434448,891.735413 1851.426147,890.655518 1853.668701,887.754761 
	C1853.668701,899.832764 1853.668701,909.652527 1853.668701,919.886475 
	C1856.799927,919.886475 1859.230835,919.886475 1861.832642,919.886475 
	C1861.832642,870.596802 1861.832642,821.788818 1861.832642,772.321960 
	C1858.825195,772.565857 1856.422241,772.760742 1853.615112,772.988342 
	C1853.615112,796.663574 1853.778564,819.636475 1853.519287,842.604553 
	C1853.437378,849.863464 1852.805786,857.224121 1851.401978,864.336121 
	C1848.975830,876.628052 1843.641113,887.602966 1834.203247,896.261475 
	C1824.238281,905.403748 1812.487305,909.700745 1799.021362,910.602051 
	C1785.336792,911.517944 1772.583252,909.635193 1761.709839,900.816101 
	C1750.328735,891.585205 1745.772217,879.043884 1745.735718,864.713318 
	C1745.665527,837.055969 1745.729370,809.398315 1745.694336,781.740784 
	C1745.690674,778.831238 1745.397217,775.922058 1745.230347,772.868591 
	C1741.824951,772.868591 1739.054565,772.868591 1736.454224,772.868591 
	C1736.089233,774.066162 1735.757202,774.681580 1735.735962,775.307556 
	C1735.645508,777.969421 1735.646973,780.634521 1735.615112,785.225037 
M1936.928955,795.760559 
	C1967.133179,774.236389 1996.333740,777.868530 2024.926392,800.059082 
	C2026.899292,797.309692 2028.531616,795.035034 2030.079224,792.878418 
	C1998.962646,762.265259 1944.173828,766.769775 1919.635742,799.387207 
	C1895.486084,831.488098 1900.775391,884.908997 1935.672729,908.346619 
	C1970.244873,931.565857 2020.008545,918.604187 2032.548096,894.966125 
	C2030.709839,893.322021 2028.808350,891.621338 2026.765259,889.793945 
	C2009.919434,906.778015 1990.009155,913.803101 1966.783569,910.080017 
	C1944.832031,906.561157 1929.068726,894.460938 1919.762939,874.215820 
	C1909.752197,852.437073 1911.645630,816.790161 1936.928955,795.760559 
M2272.966797,784.357605 
	C2279.207520,784.357605 2285.448242,784.357605 2292.285645,784.357605 
	C2292.101318,780.938904 2291.970459,778.516235 2291.787109,775.114258 
	C2274.344727,775.114258 2257.548340,775.114258 2239.869141,775.114258 
	C2239.869141,762.929504 2239.869141,751.750122 2239.869141,740.848999 
	C2236.716553,740.848999 2234.558838,740.848999 2231.444336,740.848999 
	C2231.444336,752.514832 2231.444336,763.685364 2231.444336,775.801270 
	C2223.704346,775.801270 2216.888428,775.801270 2209.501953,775.801270 
	C2209.864502,779.296509 2210.118164,781.740356 2210.431885,784.764771 
	C2217.633545,784.764771 2224.188232,784.764771 2231.642822,784.764771 
	C2231.642822,788.646423 2231.642822,791.892517 2231.642822,795.138550 
	C2231.642822,824.120728 2231.622803,853.103027 2231.667725,882.085083 
	C2231.673584,885.737061 2231.658203,889.450500 2232.270752,893.029724 
	C2235.491211,911.849243 2246.421631,920.739929 2265.362305,920.375854 
	C2275.701904,920.177124 2284.822754,916.671509 2293.079590,910.643188 
	C2293.828857,910.096130 2294.456543,909.382629 2295.556152,908.360535 
	C2293.668945,906.038574 2291.861572,903.814819 2290.038086,901.571106 
	C2286.266357,903.711304 2283.253662,905.859497 2279.916016,907.196838 
	C2276.261963,908.661072 2272.357178,909.641418 2268.474609,910.368835 
	C2255.898438,912.725342 2246.851807,907.650635 2243.146240,895.617126 
	C2241.512207,890.310791 2240.526855,884.590027 2240.477539,879.046387 
	C2240.219971,850.066467 2240.338135,821.083008 2240.391357,792.100891 
	C2240.395996,789.597778 2240.879395,787.095581 2241.164795,784.357605 
	C2251.681396,784.357605 2261.335205,784.357605 2272.966797,784.357605 
M2336.811035,772.494812 
	C2334.625000,772.609924 2332.438721,772.725037 2330.266602,772.839417 
	C2330.266602,822.346375 2330.266602,871.143616 2330.266602,920.536255 
	C2333.364258,920.143188 2335.793701,919.834900 2338.334473,919.512451 
	C2338.334473,898.466248 2338.375977,878.152405 2338.324707,857.838867 
	C2338.254150,829.862976 2338.113770,801.887207 2336.811035,772.494812 
M2339.287109,740.046509 
	C2340.324707,737.396057 2341.878906,734.820740 2342.277588,732.077393 
	C2342.864502,728.037720 2340.998779,724.708008 2336.761230,723.913269 
	C2332.882568,723.185913 2328.839600,722.806885 2326.038330,726.947998 
	C2323.687988,730.422791 2323.661865,733.723511 2325.884033,737.119995 
	C2328.842041,741.641479 2332.831299,743.006104 2339.287109,740.046509 
z"/>
<path fill="#010101" opacity="1.000000" stroke="none" 
	d="
M600.137024,3.716437 
	C643.866150,7.216356 686.870605,14.398602 728.890991,27.434355 
	C772.897583,41.086308 814.562073,59.693958 854.025024,83.442230 
	C898.208069,110.030968 937.922791,142.183090 973.086365,179.768967 
	C1025.256714,235.533142 1064.683960,299.282562 1090.859863,371.153442 
	C1105.454346,411.225586 1115.088867,452.382812 1120.489502,494.697449 
	C1125.141113,531.144470 1125.943726,567.714783 1123.380981,604.151245 
	C1118.519531,673.271179 1101.358276,739.443176 1071.740479,802.304993 
	C1047.319092,854.137451 1015.848083,901.255981 977.060120,943.270081 
	C915.088684,1010.395874 841.114929,1059.903564 755.144226,1091.159546 
	C715.094238,1105.720337 673.910767,1115.647217 631.511230,1120.339111 
	C627.575378,1120.774780 623.643860,1121.250244 618.004150,1121.769409 
	C612.798279,1121.863647 609.298706,1121.895630 604.931641,1121.905762 
	C598.750427,1122.900269 592.886475,1119.739868 588.000000,1124.000000 
	C572.624817,1124.000000 557.249695,1124.000000 540.409363,1123.387939 
	C533.363403,1122.493286 527.782593,1122.210571 521.325623,1121.912842 
	C516.955994,1121.951294 513.462524,1122.004761 509.129639,1121.882080 
	C495.182129,1119.934082 482.030151,1118.436401 468.973450,1116.343872 
	C407.056702,1106.420654 348.713013,1085.839233 293.919739,1055.619141 
	C221.273987,1015.552795 160.136307,962.147522 111.191742,894.965454 
	C49.690117,810.547485 14.151169,716.425781 5.148035,611.473145 
	C4.948216,607.454651 5.029849,604.245178 4.555909,601.120056 
	C4.382576,599.977112 2.890491,599.034180 2.000005,598.000000 
	C2.000000,575.958191 2.000000,553.916443 2.716274,530.534302 
	C3.687648,524.844849 3.942748,520.495789 4.749846,515.526001 
	C6.776979,502.081024 7.819633,489.189514 9.800466,476.443787 
	C19.515179,413.934479 39.275532,354.820923 69.188759,298.976013 
	C102.234085,237.283783 145.411804,183.893158 198.298859,138.250092 
	C260.605713,84.477486 331.443207,46.487438 410.581818,23.930237 
	C448.955200,12.992509 488.123047,6.702569 528.769775,3.837322 
	C536.414246,2.927638 543.577332,6.307934 550.000000,2.000000 
	C558.713806,2.000000 567.427612,2.000000 577.428833,2.782800 
	C585.856567,3.615879 592.996765,3.666158 600.137024,3.716437 
M416.505768,367.418671 
	C421.595215,366.783569 426.684692,366.148438 431.774139,365.513306 
	C431.737427,365.144867 431.700745,364.776459 431.664032,364.408020 
	C356.162598,364.408020 280.661163,364.408020 205.159744,364.408020 
	C206.657669,365.912598 208.219345,366.210175 209.794022,366.317871 
	C217.720627,366.860046 225.778046,366.630402 233.554733,368.002533 
	C254.144867,371.635468 259.796570,378.350708 263.273071,392.772247 
	C264.889069,399.475861 265.552765,406.562347 265.562469,413.476776 
	C265.702911,513.432434 265.695831,613.388428 265.574097,713.344116 
	C265.566071,719.930176 264.777832,726.593445 263.597656,733.083496 
	C261.175110,746.405457 253.583679,755.278198 239.975327,758.242126 
	C236.102127,759.085693 232.185104,759.799194 228.252655,760.284302 
	C220.784927,761.205750 213.291565,761.919373 205.808853,762.719299 
	C205.820831,762.820740 205.832809,762.922180 205.844788,763.023621 
	C264.226074,763.023621 322.607391,763.023621 381.671326,763.023621 
	C381.671326,758.770752 381.671356,755.160034 381.671356,751.549316 
	C381.671356,638.265991 381.662750,524.982727 381.700043,411.699402 
	C381.701691,406.715912 381.742828,401.680237 382.419281,396.758759 
	C384.565979,381.140717 392.669891,372.290894 407.879242,368.572876 
	C410.125397,368.023773 412.486511,367.945068 416.505768,367.418671 
M443.527832,763.673828 
	C500.750366,763.673828 557.972900,763.673828 615.374756,763.673828 
	C623.596252,733.792603 631.748718,704.752563 639.416687,675.585144 
	C640.437012,671.704163 639.692078,666.985352 638.587219,662.979309 
	C630.917480,635.169250 622.730347,607.501343 615.126831,579.673767 
	C609.980835,560.840576 604.449829,542.009216 601.069336,522.828430 
	C598.164551,506.347046 605.245178,499.625824 617.150879,498.268219 
	C618.058350,498.164764 618.886841,497.368347 620.740417,496.352112 
	C573.115356,496.352112 526.854004,496.352112 480.592682,496.352112 
	C491.765411,497.329102 495.045227,505.166443 497.614258,514.207031 
	C506.768372,546.420959 516.561707,578.458130 525.341431,610.771912 
	C532.005859,635.300354 534.152344,660.403320 529.708740,685.629211 
	C526.710144,702.651489 519.694519,717.764160 506.751770,729.904175 
	C496.297211,739.710266 484.024536,746.109802 470.556335,750.035095 
	C459.465332,753.267517 448.018311,755.325378 436.664948,757.581055 
	C433.352203,758.239136 431.726227,759.212891 433.218964,763.673828 
	C435.836487,763.673828 438.759277,763.673828 443.527832,763.673828 
M754.248291,530.077271 
	C754.056763,528.091858 753.742798,526.109497 753.692688,524.120483 
	C753.195984,504.393372 754.045227,503.102722 771.410522,496.775970 
	C759.520447,494.619171 638.737427,495.205383 630.101501,498.411438 
	C643.817932,496.865295 647.175354,504.451355 649.713379,513.270935 
	C669.900696,583.420898 690.165588,653.548645 710.427002,723.677307 
	C714.274536,736.994141 718.212219,750.284851 722.014832,763.268311 
	C737.810913,763.268311 752.705811,763.268311 767.471313,763.268311 
	C768.004211,761.954773 768.476135,761.056824 768.740356,760.101440 
	C776.436646,732.282410 784.071899,704.446533 791.827759,676.644165 
	C793.225708,671.632629 792.388184,667.009644 791.007080,662.139404 
	C778.699829,618.737549 766.552795,575.290222 754.248291,530.077271 
M985.859985,697.528748 
	C975.702820,680.060303 954.234192,673.612061 939.855896,677.163025 
	C916.298157,682.981018 901.636414,704.191711 906.096436,728.190735 
	C910.513306,751.957153 931.750610,765.652588 952.392151,763.312256 
	C985.704102,759.535461 1001.553711,724.711853 985.859985,697.528748 
M810.399597,502.055756 
	C827.131897,510.349945 827.155884,526.710144 829.065979,542.121155 
	C832.925903,542.121155 836.223328,542.121155 839.413269,542.121155 
	C861.048035,504.505829 864.130798,504.470520 893.799377,496.279785 
	C858.052124,496.279785 824.604309,496.279785 791.156494,496.279785 
	C791.140869,496.517548 791.125244,496.755310 791.109619,496.993073 
	C797.045959,498.539825 802.982361,500.086578 810.399597,502.055756 
z"/>
<path fill="#FEFEFE" opacity="1.000000" stroke="none" 
	d="
M527.863647,3.717221 
	C488.123047,6.702569 448.955200,12.992509 410.581818,23.930237 
	C331.443207,46.487438 260.605713,84.477486 198.298859,138.250092 
	C145.411804,183.893158 102.234085,237.283783 69.188759,298.976013 
	C39.275532,354.820923 19.515179,413.934479 9.800466,476.443787 
	C7.819633,489.189514 6.776979,502.081024 4.206237,515.401611 
	C2.740421,515.931946 2.370210,515.966003 2.000000,516.000000 
	C2.000000,344.810913 2.000000,173.621826 2.000000,2.000000 
	C176.708221,2.000000 351.416779,2.000000 526.991211,2.426334 
	C527.856995,2.852669 527.863647,3.717221 527.863647,3.717221 
z"/>
<path fill="#FEFEFE" opacity="1.000000" stroke="none" 
	d="
M5.209469,612.315552 
	C14.151169,716.425781 49.690117,810.547485 111.191742,894.965454 
	C160.136307,962.147522 221.273987,1015.552795 293.919739,1055.619141 
	C348.713013,1085.839233 407.056702,1106.420654 468.973450,1116.343872 
	C482.030151,1118.436401 495.182129,1119.934082 509.235229,1122.365967 
	C510.180206,1123.026001 510.000000,1124.000000 510.000000,1124.000000 
	C340.812012,1124.000000 171.624008,1124.000000 2.000000,1124.000000 
	C2.000000,953.958435 2.000000,783.916565 2.545115,612.955139 
	C3.796643,612.128906 4.503057,612.222229 5.209469,612.315552 
z"/>
<path fill="#030303" opacity="1.000000" stroke="none" 
	d="
M3756.000000,295.125000 
	C3746.544922,297.821533 3741.063721,305.035248 3735.487549,311.741760 
	C3725.760986,323.439484 3720.500977,337.538147 3715.721680,351.728302 
	C3693.135254,418.784698 3670.779297,485.918823 3648.139160,552.956909 
	C3637.512939,584.421204 3626.598877,615.791626 3615.434570,647.068665 
	C3612.658203,654.846863 3608.635010,662.219055 3604.780029,669.565186 
	C3596.647217,685.062439 3583.198730,694.111328 3566.564941,697.442261 
	C3539.033691,702.955505 3511.662354,702.463928 3485.613281,690.251343 
	C3471.966553,683.853333 3460.270996,674.771484 3456.181641,659.586426 
	C3449.972168,636.527161 3456.229492,615.432556 3480.054199,604.827209 
	C3500.300781,595.814514 3521.441895,595.288391 3541.953857,603.921448 
	C3565.553955,613.854309 3573.787842,642.322632 3560.422363,664.248169 
	C3554.032471,674.730835 3544.928955,681.898865 3533.099854,687.161133 
	C3565.979736,692.693298 3585.557129,680.326904 3598.049805,654.360718 
	C3598.481934,653.462952 3598.964600,652.589600 3599.412598,651.699280 
	C3604.996582,640.601868 3605.965576,630.361572 3600.162842,618.045410 
	C3574.827393,564.269348 3550.647949,509.947815 3526.123779,455.790405 
	C3505.986084,411.319733 3486.069336,366.748627 3465.807129,322.335022 
	C3459.451416,308.404022 3451.136475,296.103638 3434.209473,293.847137 
	C3434.209473,289.192017 3434.209473,284.996063 3434.209473,280.691437 
	C3495.351318,285.121094 3555.938721,285.696503 3617.102539,280.562347 
	C3617.102539,284.380707 3617.102539,287.858704 3617.102539,291.879211 
	C3610.112305,292.554840 3603.246582,293.150360 3596.396729,293.894836 
	C3582.487549,295.406586 3578.113037,302.346100 3583.444336,315.026672 
	C3607.122559,371.347809 3630.915283,427.620819 3654.692139,483.900482 
	C3655.198242,485.098511 3656.010010,486.167572 3657.265869,488.287476 
	C3661.788086,474.429840 3666.176514,461.418152 3670.276367,448.316101 
	C3676.520020,428.362854 3682.819336,408.420868 3688.611816,388.334686 
	C3693.279785,372.147888 3693.296875,355.397614 3691.901123,338.825623 
	C3689.795410,313.824066 3676.914551,299.667419 3651.904541,293.126068 
	C3650.957520,292.878326 3650.106934,292.261444 3648.767334,291.595886 
	C3648.767334,288.306519 3648.767334,284.795410 3648.767334,281.093567 
	C3684.203369,282.639496 3719.218994,284.266144 3755.117676,281.649384 
	C3756.000000,286.083344 3756.000000,290.166656 3756.000000,295.125000 
z"/>
<path fill="#AAAAAA" opacity="1.000000" stroke="none" 
	d="
M5.148036,611.473145 
	C4.503057,612.222229 3.796643,612.128906 2.545115,612.017822 
	C2.000000,607.916687 2.000000,603.833313 2.000005,598.875000 
	C2.890491,599.034180 4.382576,599.977112 4.555909,601.120056 
	C5.029849,604.245178 4.948216,607.454651 5.148036,611.473145 
z"/>
<path fill="#AAAAAA" opacity="1.000000" stroke="none" 
	d="
M600.140869,3.284286 
	C592.996765,3.666158 585.856567,3.615879 578.358154,2.782800 
	C584.722595,2.000000 591.445129,2.000000 599.083862,2.000000 
	C600.000000,2.000000 600.144653,2.852136 600.140869,3.284286 
z"/>
<path fill="#AAAAAA" opacity="1.000000" stroke="none" 
	d="
M528.769775,3.837322 
	C527.863647,3.717221 527.856995,2.852669 527.928467,2.426334 
	C534.722595,2.000000 541.445129,2.000000 549.083862,2.000000 
	C543.577332,6.307934 536.414246,2.927638 528.769775,3.837322 
z"/>
<path fill="#0F0F0F" opacity="1.000000" stroke="none" 
	d="
M522.201782,1121.927856 
	C527.782593,1122.210571 533.363403,1122.493286 539.472107,1123.387939 
	C534.599976,1124.000000 529.199951,1124.000000 523.216919,1123.507812 
	C522.489868,1122.653076 522.345825,1122.290527 522.201782,1121.927856 
z"/>
<path fill="#0F0F0F" opacity="1.000000" stroke="none" 
	d="
M588.899963,1124.000000 
	C592.886475,1119.739868 598.750427,1122.900269 604.715454,1122.449707 
	C605.577698,1123.343628 605.788818,1123.671753 606.000000,1124.000000 
	C600.599976,1124.000000 595.199951,1124.000000 588.899963,1124.000000 
z"/>
<path fill="#AAAAAA" opacity="1.000000" stroke="none" 
	d="
M2.000000,516.875000 
	C2.370210,515.966003 2.740421,515.931946 3.654240,516.022278 
	C3.942748,520.495789 3.687648,524.844849 2.716274,529.596985 
	C2.000000,525.916687 2.000000,521.833313 2.000000,516.875000 
z"/>
<path fill="#AAAAAA" opacity="1.000000" stroke="none" 
	d="
M521.325623,1121.912842 
	C522.345825,1122.290527 522.489868,1122.653076 522.316895,1123.507812 
	C518.571655,1124.000000 515.143250,1124.000000 510.857452,1124.000000 
	C510.000000,1124.000000 510.180206,1123.026001 510.074646,1122.542236 
	C513.462524,1122.004761 516.955994,1121.951294 521.325623,1121.912842 
z"/>
<path fill="#AAAAAA" opacity="1.000000" stroke="none" 
	d="
M606.857422,1124.000000 
	C605.788818,1123.671753 605.577698,1123.343628 605.582886,1122.471558 
	C609.298706,1121.895630 612.798279,1121.863647 617.164673,1121.945312 
	C618.031372,1122.059082 617.820801,1123.026367 617.910400,1123.513184 
	C614.571655,1124.000000 611.143250,1124.000000 606.857422,1124.000000 
z"/>
<path fill="#020202" opacity="1.000000" stroke="none" 
	d="
M2887.600098,451.597778 
	C2875.456299,497.914215 2863.453369,543.417053 2851.518799,588.660767 
	C2831.878174,588.660767 2812.814697,588.660767 2792.853027,588.660767 
	C2787.134521,572.275085 2781.136475,555.096985 2775.144043,537.916809 
	C2750.651123,467.695099 2726.160889,397.472382 2701.656738,327.254639 
	C2701.329590,326.316925 2700.768311,325.462494 2700.421143,324.530060 
	C2694.624268,308.950653 2686.736572,295.530365 2668.010498,293.948792 
	C2668.010498,289.201782 2668.010498,285.291138 2668.010498,280.259827 
	C2728.583008,284.083466 2788.797852,285.704773 2849.667480,279.903625 
	C2849.667480,284.612305 2849.667480,288.450958 2849.667480,293.086334 
	C2845.149658,293.482605 2840.296143,293.828278 2835.463379,294.361969 
	C2832.522705,294.686768 2829.544434,295.048981 2826.704102,295.832947 
	C2817.760498,298.301422 2814.635986,303.188873 2817.025391,312.242218 
	C2820.581055,325.712555 2824.608643,339.061615 2828.600342,352.412903 
	C2840.386963,391.835114 2852.250000,431.234375 2864.113770,470.633484 
	C2864.454590,471.765869 2865.137939,472.795135 2866.588379,475.778961 
	C2883.560791,409.542358 2900.034668,345.250916 2916.494629,281.013062 
	C2938.269775,281.013062 2959.365723,281.013062 2981.530029,281.013062 
	C3003.407959,351.367798 3025.424561,422.168091 3047.441162,492.968384 
	C3048.041748,492.932281 3048.642090,492.896210 3049.242676,492.860107 
	C3054.513428,475.329865 3060.059814,457.876556 3064.982422,440.249084 
	C3070.596436,420.145782 3076.550537,400.067932 3080.671387,379.639008 
	C3083.955322,363.356659 3084.170654,346.533569 3079.257080,330.254791 
	C3073.249023,310.350647 3060.063477,298.108398 3039.454590,294.179626 
	C3038.153564,293.931549 3036.869873,293.592285 3034.961914,293.153870 
	C3034.961914,289.382050 3034.961914,285.539612 3034.961914,280.513397 
	C3072.792969,282.615906 3110.729248,283.519226 3149.161621,280.747925 
	C3149.161621,284.985199 3149.161621,288.889130 3149.161621,293.567078 
	C3145.817139,295.623260 3141.806885,297.846863 3138.052734,300.440948 
	C3125.737549,308.951050 3118.665283,321.428833 3113.784424,334.987823 
	C3106.704346,354.655182 3100.301758,374.577332 3094.036133,394.524536 
	C3079.813477,439.803406 3065.856689,485.165863 3051.778320,530.490051 
	C3046.461914,547.605591 3041.115967,564.712036 3035.760742,581.815491 
	C3034.981689,584.303711 3034.074463,586.751892 3033.434326,588.614624 
	C3013.600830,588.614624 2994.525146,588.614624 2974.518799,588.614624 
	C2951.738281,522.541321 2928.717529,455.770935 2905.696777,389.000580 
	C2905.180908,388.971741 2904.664795,388.942871 2904.148926,388.914032 
	C2898.679688,409.537415 2893.210449,430.160797 2887.600098,451.597778 
z"/>
<path fill="#020202" opacity="1.000000" stroke="none" 
	d="
M2166.054688,274.719055 
	C2166.880371,287.238556 2166.880371,299.514954 2166.880371,311.616486 
	C2168.594727,311.875732 2169.502441,312.211914 2169.647949,312.006836 
	C2184.993896,290.395294 2206.625977,279.205475 2232.113525,274.815094 
	C2252.206787,271.353882 2272.320312,271.229279 2292.390869,275.722290 
	C2320.097168,281.924500 2336.598877,299.085571 2341.670166,326.692322 
	C2343.994629,339.345428 2345.408447,352.344269 2345.499023,365.198547 
	C2345.900879,422.193970 2345.619629,479.194000 2345.752930,536.191956 
	C2345.766846,542.113464 2346.440186,548.121216 2347.587402,553.934937 
	C2350.455078,568.464294 2357.188721,574.273865 2371.923096,575.631714 
	C2373.824219,575.806885 2375.755615,575.655701 2377.973633,575.655701 
	C2377.973633,580.416504 2377.973633,584.340698 2377.973633,588.679199 
	C2322.381592,588.679199 2266.812012,588.679199 2210.783691,588.679199 
	C2210.783691,584.814392 2210.783691,580.932129 2210.783691,577.013855 
	C2211.258789,576.656189 2211.711182,576.034851 2212.245605,575.953857 
	C2228.349365,573.517090 2233.375244,568.592224 2235.681641,552.604492 
	C2236.154541,549.324341 2236.299805,545.971680 2236.301514,542.652344 
	C2236.335449,474.321075 2236.337891,405.989807 2236.295898,337.658569 
	C2236.293457,334.008606 2236.241211,330.279602 2235.532959,326.722656 
	C2232.256348,310.270020 2218.855713,301.471771 2202.341064,304.687714 
	C2180.245605,308.990448 2166.352539,325.794464 2166.347412,348.314880 
	C2166.332764,412.312958 2166.276367,476.311188 2166.447021,540.308777 
	C2166.463623,546.537598 2167.399902,552.893372 2168.868652,558.957886 
	C2170.974121,567.651428 2176.131348,573.743469 2185.776123,574.781067 
	C2188.065918,575.027344 2190.309326,575.707520 2193.124023,576.304810 
	C2193.124023,580.304016 2193.124023,584.431885 2193.124023,588.679199 
	C2137.831543,588.679199 2082.795410,588.679199 2027.042480,588.679199 
	C2027.042480,584.750244 2027.042480,580.271301 2027.042480,575.090576 
	C2029.216797,574.662109 2031.715332,574.062012 2034.247437,573.688599 
	C2048.823486,571.538696 2055.610107,565.215027 2057.613037,550.850708 
	C2058.755127,542.660156 2059.545654,534.346863 2059.570312,526.086182 
	C2059.737549,470.088379 2059.739502,414.089569 2059.581299,358.091736 
	C2059.553223,348.158081 2058.901855,338.188416 2057.881836,328.303131 
	C2055.718994,307.345459 2048.332520,299.563202 2026.899658,295.188782 
	C2026.899658,290.488068 2026.899658,285.669220 2026.899658,281.615814 
	C2047.989014,281.852325 2068.608398,283.035583 2089.125244,282.062744 
	C2112.596924,280.949829 2135.979004,277.937103 2159.394775,275.693787 
	C2161.360596,275.505432 2163.285400,274.891968 2166.054688,274.719055 
z"/>
<path fill="#030303" opacity="1.000000" stroke="none" 
	d="
M1684.346191,523.456848 
	C1685.593140,545.837402 1686.839844,567.268921 1688.109009,589.086609 
	C1573.207397,586.699036 1458.923950,587.433350 1344.147949,589.261414 
	C1344.147949,585.033020 1344.147949,581.198730 1344.147949,577.101624 
	C1351.477173,576.024048 1358.700195,575.342346 1365.747192,573.836609 
	C1376.242065,571.594116 1382.762573,565.045715 1384.163574,554.193726 
	C1385.137573,546.649475 1386.222778,539.042725 1386.232910,531.462524 
	C1386.368774,429.830475 1386.384277,328.198059 1386.210449,226.566116 
	C1386.196411,218.334045 1385.041504,210.021469 1383.584717,201.895508 
	C1381.821289,192.060242 1375.492432,186.135605 1365.557739,184.475037 
	C1358.723022,183.332611 1351.837402,182.494202 1344.335815,181.429230 
	C1344.335815,177.179520 1344.335815,173.094940 1344.335815,169.013748 
	C1414.677124,170.923965 1484.663086,170.949219 1555.188965,168.947769 
	C1555.359985,170.672989 1555.640625,172.262833 1555.645752,173.853577 
	C1555.653076,176.127075 1555.458862,178.401199 1555.319946,181.322021 
	C1548.514282,182.141815 1542.014160,182.860413 1535.532471,183.718048 
	C1518.244263,186.005554 1511.552979,192.213135 1508.595093,209.198883 
	C1507.801514,213.756546 1507.713745,218.479340 1507.711792,223.126526 
	C1507.665771,330.756714 1507.644287,438.386932 1507.767700,546.016968 
	C1507.774048,551.580872 1508.584229,557.276794 1509.957764,562.672607 
	C1511.678955,569.434692 1516.846558,573.029114 1523.625610,574.153687 
	C1561.068237,580.364929 1591.454346,567.194214 1616.190552,539.662109 
	C1643.853027,508.873016 1662.194580,473.193268 1670.694214,432.569183 
	C1670.959961,431.299286 1671.757202,430.140594 1672.436890,428.642822 
	C1674.649170,428.536926 1676.942871,428.391663 1679.238770,428.328094 
	C1681.159180,428.274902 1683.082275,428.317169 1684.345947,428.317169 
	C1684.345947,460.167419 1684.345947,491.337616 1684.346191,523.456848 
z"/>
<path fill="#030303" opacity="1.000000" stroke="none" 
	d="
M3236.815430,436.809387 
	C3253.427246,429.838776 3269.450928,423.472748 3285.144531,416.377411 
	C3290.167480,414.106567 3294.549316,410.175812 3298.811279,406.522614 
	C3304.890869,401.311981 3308.193359,394.427826 3308.260254,386.386047 
	C3308.413086,368.058258 3308.490967,349.725372 3308.193359,331.401154 
	C3308.108154,326.156311 3307.097900,320.807922 3305.715820,315.723480 
	C3299.885986,294.279694 3283.771729,283.233337 3261.534180,286.232147 
	C3253.172852,287.359680 3245.118408,290.761230 3236.924072,293.126099 
	C3236.915527,293.853760 3236.906738,294.581421 3236.898193,295.309113 
	C3239.878662,296.918671 3242.873779,298.502014 3245.837646,300.141876 
	C3270.308105,313.681824 3276.664551,336.478180 3272.927002,358.209625 
	C3268.912354,381.551300 3248.758301,396.066040 3226.518555,398.107361 
	C3214.687256,399.193268 3202.683350,399.399872 3191.653809,392.659943 
	C3172.774414,381.122955 3163.352295,357.260498 3169.080566,333.494843 
	C3173.600586,314.742950 3186.015869,302.264893 3202.224365,293.217743 
	C3219.249023,283.715179 3237.801758,278.464233 3257.016602,275.979736 
	C3270.786621,274.199249 3284.764648,272.157440 3298.542725,272.744629 
	C3319.627686,273.643250 3340.966553,273.691803 3361.400146,280.828888 
	C3392.840088,291.810272 3410.907715,313.214417 3413.596436,346.700867 
	C3414.711426,360.586945 3415.523926,374.536530 3415.583740,388.461090 
	C3415.811279,441.448151 3415.659424,494.436768 3415.707275,547.424805 
	C3415.710693,551.407104 3415.753662,555.468323 3416.498047,559.355042 
	C3418.205811,568.272217 3422.489990,570.445374 3430.712646,566.726379 
	C3434.591797,564.971863 3438.233887,562.692993 3442.616699,560.306946 
	C3444.659180,563.761169 3446.621826,567.080200 3448.682373,570.565186 
	C3437.770996,580.949829 3424.793701,586.067993 3411.138916,589.016296 
	C3390.541992,593.463440 3369.638916,594.022461 3348.771484,590.617249 
	C3328.251465,587.268738 3315.360352,575.475830 3310.462646,555.149414 
	C3310.232666,554.196167 3309.966064,553.251892 3309.943604,553.165833 
	C3303.489258,559.131653 3297.131104,565.784485 3289.992676,571.454651 
	C3272.216553,585.574280 3251.833740,592.386963 3229.024170,592.440125 
	C3215.280518,592.472229 3201.748291,591.911926 3189.022217,586.124023 
	C3165.261230,575.317444 3152.802002,556.684998 3151.770752,530.709717 
	C3151.442871,522.449890 3151.552246,513.962463 3153.070557,505.881500 
	C3156.685303,486.642151 3167.775391,472.144867 3183.668213,460.943909 
	C3199.672852,449.664276 3217.923584,443.525726 3236.815430,436.809387 
M3308.333008,477.000153 
	C3308.231689,456.703827 3308.132568,436.407471 3308.002197,416.111328 
	C3308.000977,415.914948 3307.615723,415.668121 3307.361816,415.540466 
	C3307.085205,415.401611 3306.752441,415.374664 3306.795898,415.385345 
	C3299.144775,423.474182 3291.758545,431.573547 3284.054199,439.357880 
	C3273.087646,450.438568 3264.866699,463.185211 3260.786621,478.232391 
	C3256.465332,494.169983 3255.248535,510.492218 3260.687500,526.317139 
	C3266.907227,544.413513 3285.872559,550.258850 3302.103760,540.129517 
	C3306.456543,537.413025 3308.585205,534.381958 3308.465820,528.934509 
	C3308.100586,512.296814 3308.333008,495.645935 3308.333008,477.000153 
z"/>
<path fill="#020202" opacity="1.000000" stroke="none" 
	d="
M1961.769775,308.396973 
	C1972.706421,323.748322 1975.314087,340.919403 1975.497925,358.201752 
	C1976.161377,420.511597 1976.086182,482.829071 1976.399780,545.143127 
	C1976.424683,550.079468 1976.960083,555.072083 1977.843994,559.932007 
	C1979.304810,567.963196 1984.131714,570.556885 1991.537720,567.243286 
	C1995.453735,565.491211 1998.982544,562.873840 2003.460083,560.181824 
	C2005.511597,563.583679 2007.485229,566.856567 2009.564819,570.305054 
	C2003.511719,577.445251 1995.576904,580.916809 1987.662109,584.108154 
	C1962.864014,594.106812 1936.844360,594.463013 1911.052002,590.911011 
	C1889.133057,587.892456 1874.400269,575.133606 1871.067383,551.129089 
	C1866.551514,556.113037 1862.821655,560.704407 1858.607910,564.797974 
	C1840.134888,582.744019 1817.921875,591.835571 1792.177124,592.344543 
	C1778.164307,592.621582 1764.356812,592.207947 1751.084473,586.516541 
	C1727.422485,576.369751 1712.877197,554.475159 1712.199463,528.887207 
	C1711.638794,507.715485 1716.455200,488.614685 1730.997559,472.836243 
	C1741.044312,461.935699 1753.433838,453.960052 1767.123291,448.477539 
	C1785.298218,441.198761 1803.814209,434.776276 1822.124390,427.829498 
	C1834.262573,423.224396 1846.142822,418.076569 1856.427246,409.867859 
	C1865.295410,402.789581 1869.975342,393.934570 1869.738892,382.317841 
	C1869.420288,366.658295 1870.060669,350.972656 1869.486206,335.327698 
	C1869.210205,327.808075 1867.976562,320.066650 1865.639893,312.928772 
	C1859.186401,293.214447 1844.277344,283.895630 1823.511841,285.868408 
	C1814.489746,286.725525 1805.985474,289.444153 1797.197144,295.127411 
	C1800.862427,297.027374 1803.932983,298.512543 1806.903442,300.176331 
	C1824.572754,310.072998 1833.153809,324.900635 1834.593018,345.394592 
	C1837.027954,380.064667 1805.528564,399.365967 1781.331909,398.466705 
	C1771.959473,398.118378 1762.839111,397.967041 1754.221924,393.495911 
	C1733.007812,382.488708 1726.620728,357.542816 1728.741577,340.188477 
	C1731.192627,320.131805 1742.805786,306.146576 1759.188477,295.753784 
	C1776.890381,284.524139 1796.702881,278.891571 1817.273926,276.192627 
	C1831.372925,274.342773 1845.682007,272.121613 1859.783813,272.723785 
	C1881.854004,273.666199 1904.297607,273.536835 1925.435669,281.924500 
	C1939.601562,287.545532 1952.082642,295.423401 1961.769775,308.396973 
M1858.661255,542.511597 
	C1866.872803,539.669067 1870.070923,534.464722 1869.916870,525.273621 
	C1869.341919,490.977936 1869.699463,456.666779 1869.661133,422.361481 
	C1869.658447,419.928253 1869.283447,417.495453 1869.005005,414.137207 
	C1861.093994,422.536774 1854.333740,430.308167 1846.949097,437.432648 
	C1831.308350,452.522278 1821.446167,470.580383 1818.871216,492.132599 
	C1817.292725,505.343994 1817.336792,518.649841 1823.770752,531.040344 
	C1828.131226,539.437683 1834.725220,544.296753 1844.321045,544.310425 
	C1848.603027,544.316467 1852.886230,543.645264 1858.661255,542.511597 
z"/>
<path fill="#030303" opacity="1.000000" stroke="none" 
	d="
M2514.322998,416.304993 
	C2513.414795,442.962463 2514.480713,468.403717 2524.978516,492.430664 
	C2538.721191,523.884949 2569.669434,538.078064 2602.917969,528.780090 
	C2622.286377,523.363708 2637.265869,511.883545 2649.739746,496.597931 
	C2650.779785,495.323547 2651.826660,494.053894 2652.907959,492.814636 
	C2653.108154,492.585236 2653.487793,492.512543 2654.602295,491.967651 
	C2657.309082,493.076843 2660.576416,494.415741 2664.535400,496.038116 
	C2656.936035,517.698975 2647.421387,537.504456 2632.838867,554.718994 
	C2615.518555,575.165527 2594.226074,589.490234 2567.815918,594.367676 
	C2520.937256,603.025269 2477.865967,594.750244 2442.060059,561.307190 
	C2425.381348,545.729065 2415.993408,525.505249 2409.975342,503.655945 
	C2402.022461,474.782593 2400.918213,445.198608 2402.612305,415.681702 
	C2404.198242,388.052155 2410.467773,361.340851 2425.138672,337.082611 
	C2441.899414,309.368958 2465.592773,290.625641 2496.188965,280.801605 
	C2527.055664,270.890747 2558.564453,268.630249 2590.379150,275.811615 
	C2622.384521,283.035950 2643.855469,302.870422 2655.989502,332.856171 
	C2665.202637,355.622986 2667.891357,379.620880 2667.653320,405.522064 
	C2657.241211,405.576355 2647.080078,405.649658 2636.919189,405.676544 
	C2626.925049,405.702972 2616.930664,405.682312 2606.936523,405.682312 
	C2596.609131,405.682312 2586.281982,405.682312 2575.954590,405.682312 
	C2565.960449,405.682312 2555.966064,405.682312 2545.971924,405.682312 
	C2535.729736,405.682312 2525.487549,405.682312 2514.341553,405.682312 
	C2514.341553,409.510529 2514.341553,412.420654 2514.322998,416.304993 
M2554.989990,394.330109 
	C2563.213623,394.330109 2571.437256,394.330109 2580.257080,394.330109 
	C2580.410889,365.458160 2578.910400,337.786194 2571.393799,310.752686 
	C2570.251953,306.646118 2568.212158,302.711884 2566.115234,298.962097 
	C2558.305176,284.994507 2544.520752,283.704010 2534.586426,296.264038 
	C2531.135498,300.626923 2528.316406,305.732544 2526.263184,310.916565 
	C2515.763184,337.430389 2514.834961,365.527679 2512.446777,394.330109 
	C2526.457275,394.330109 2539.724365,394.330109 2554.989990,394.330109 
z"/>
<path fill="#0E0E0E" opacity="1.000000" stroke="none" 
	d="
M1681.737183,838.000122 
	C1681.737183,865.615051 1681.737183,892.230042 1681.737183,919.560852 
	C1678.569092,919.941711 1675.762085,920.279175 1672.175781,920.710266 
	C1672.175781,910.016785 1672.175781,899.821655 1672.175781,887.584595 
	C1665.450928,894.327637 1660.580200,900.369324 1654.576050,904.913330 
	C1648.303467,909.660522 1641.300293,913.956421 1633.954224,916.629517 
	C1626.292603,919.417419 1617.874634,921.036987 1609.724976,921.310974 
	C1601.930542,921.572937 1593.795898,920.332153 1586.289429,918.124634 
	C1578.774292,915.914551 1571.259155,912.547607 1564.834839,908.109131 
	C1558.408813,903.669556 1552.440918,897.930420 1547.816162,891.627930 
	C1525.753784,861.561279 1530.505371,813.700500 1557.825684,789.653809 
	C1574.757080,774.751343 1594.908569,769.903076 1617.147339,772.096680 
	C1639.647583,774.316162 1656.524780,785.921814 1671.593262,802.913818 
	C1671.593262,787.398376 1671.593384,771.882935 1671.593384,756.367493 
	C1671.593384,741.106384 1671.593262,725.845337 1671.593262,710.099243 
	C1675.094971,710.099243 1677.900879,710.099243 1681.737183,710.099243 
	C1681.737183,752.574646 1681.737183,794.787354 1681.737183,838.000122 
M1603.550537,911.600647 
	C1616.098633,912.364502 1628.114014,909.941528 1639.026245,903.904968 
	C1665.900513,889.038208 1677.324097,858.566101 1669.199097,827.605713 
	C1661.967407,800.048645 1636.415405,780.890259 1607.092285,781.318420 
	C1582.537598,781.676941 1556.466553,796.058472 1547.297363,823.786499 
	C1536.862183,855.342896 1549.209106,892.907166 1580.831787,905.907471 
	C1587.478149,908.639893 1594.794067,909.743713 1603.550537,911.600647 
z"/>
<path fill="#0D0D0D" opacity="1.000000" stroke="none" 
	d="
M2163.594238,899.183838 
	C2162.732910,894.015686 2161.295166,895.567932 2159.410889,897.756592 
	C2151.862305,906.525024 2142.498535,912.685120 2131.526611,916.255127 
	C2116.010742,921.303528 2100.251709,922.412903 2084.462158,917.750427 
	C2061.684570,911.024536 2048.649902,886.584900 2056.052979,865.077332 
	C2060.201660,853.024353 2069.319092,846.320129 2080.706543,842.191284 
	C2091.466797,838.289856 2102.762207,837.701538 2114.065918,837.626099 
	C2129.674316,837.521973 2145.283936,837.599976 2161.556641,837.599976 
	C2161.556641,828.239685 2162.785156,819.210510 2161.291260,810.656677 
	C2158.512207,794.743591 2146.086670,784.862976 2128.221680,782.314331 
	C2110.231201,779.747864 2094.030029,784.612671 2079.014160,794.267334 
	C2075.116455,796.773315 2071.319824,799.436218 2066.903320,802.413635 
	C2065.030273,800.086243 2063.243652,797.866272 2060.935303,794.997864 
	C2086.018799,774.956299 2112.936523,765.890381 2143.830811,776.455017 
	C2160.466064,782.143677 2168.735840,795.555969 2171.691895,812.423462 
	C2172.205811,815.355591 2172.365723,818.382507 2172.370117,821.366211 
	C2172.416016,852.679810 2172.399658,883.993530 2172.385010,915.307190 
	C2172.384521,916.600403 2172.231689,917.893494 2172.106689,919.872192 
	C2169.498535,920.014404 2167.062744,920.147217 2163.599365,920.335999 
	C2163.599365,913.189819 2163.599365,906.622986 2163.594238,899.183838 
M2129.000244,847.724365 
	C2121.022461,847.724426 2112.989746,847.143433 2105.082031,847.888916 
	C2097.257080,848.626648 2089.182373,849.690430 2081.881104,852.400208 
	C2065.984863,858.299988 2059.980469,873.035278 2065.907227,888.844116 
	C2068.843994,896.677124 2074.314209,902.027771 2081.581787,906.036743 
	C2099.759033,916.064087 2134.396240,909.954041 2148.267578,895.363831 
	C2161.316895,881.638123 2167.904297,866.864319 2161.071289,847.724365 
	C2150.892090,847.724365 2140.944336,847.724365 2129.000244,847.724365 
z"/>
<path fill="#0F0F0F" opacity="1.000000" stroke="none" 
	d="
M2512.014648,800.046753 
	C2530.263184,823.654846 2532.192871,865.679871 2512.048096,892.333862 
	C2499.722168,908.642944 2483.298340,917.827942 2463.232178,920.019592 
	C2439.989258,922.558167 2418.796387,917.251892 2401.784424,900.317688 
	C2384.611816,883.223755 2378.448486,861.788452 2380.597656,838.253967 
	C2382.333496,819.241699 2389.915283,802.705383 2404.679932,789.513367 
	C2431.857910,765.229858 2480.873779,766.490112 2505.510742,792.866577 
	C2507.556641,795.056641 2509.616943,797.233215 2512.014648,800.046753 
M2469.560791,909.298218 
	C2475.362793,906.885986 2481.613525,905.198975 2486.887695,901.934082 
	C2508.011230,888.857788 2515.987549,869.215454 2516.544434,844.780640 
	C2517.129639,819.099854 2499.241699,789.483032 2468.441406,783.459900 
	C2442.186523,778.325806 2419.646484,784.693298 2402.746338,806.140747 
	C2394.103516,817.109314 2390.261475,830.223755 2390.008789,844.167786 
	C2389.554443,869.210022 2400.051758,892.719116 2425.407227,904.885925 
	C2439.094971,911.453979 2453.309814,912.047668 2469.560791,909.298218 
z"/>
<path fill="#010101" opacity="1.000000" stroke="none" 
	d="
M1489.912964,911.665161 
	C1494.887939,911.665161 1498.871338,911.665161 1503.563721,911.665161 
	C1503.849731,914.282349 1504.114990,916.709412 1504.448975,919.765137 
	C1460.759766,919.765137 1417.654663,919.765137 1374.106445,919.765137 
	C1374.106445,854.010254 1374.106445,788.496643 1374.106445,722.323608 
	C1415.797852,722.323608 1457.558594,722.323608 1499.820068,722.323608 
	C1499.820068,724.758545 1499.820068,727.178345 1499.820068,730.244751 
	C1460.850586,730.244751 1422.302979,730.244751 1383.047852,730.244751 
	C1383.047852,758.002075 1383.047852,785.130005 1383.047852,813.226501 
	C1417.370483,813.226501 1451.852417,813.226501 1486.991089,813.226501 
	C1487.217285,816.528259 1487.380859,818.917908 1487.612671,822.302002 
	C1452.370239,822.302002 1417.877808,822.302002 1382.868408,822.302002 
	C1382.868408,852.370789 1382.868408,881.495422 1382.868408,911.665161 
	C1418.481567,911.665161 1453.701416,911.665161 1489.912964,911.665161 
z"/>
<path fill="#0F0F0F" opacity="1.000000" stroke="none" 
	d="
M2568.259521,796.050781 
	C2568.259521,787.789856 2568.259521,780.518188 2568.259521,772.771118 
	C2571.629639,772.771118 2574.130371,772.771118 2577.541016,772.771118 
	C2577.541016,782.400452 2577.541016,791.891541 2577.541016,803.893738 
	C2580.064697,800.937500 2581.072266,799.943115 2581.865723,798.800049 
	C2594.009521,781.298828 2611.589355,773.769958 2632.024170,772.378845 
	C2646.771729,771.374878 2661.192383,773.009033 2674.003174,781.742737 
	C2687.953125,791.253235 2695.746338,804.715454 2696.158936,821.082397 
	C2696.980957,853.700378 2696.402344,886.353699 2696.402344,919.670715 
	C2693.698486,919.940186 2691.256592,920.183472 2688.177490,920.490356 
	C2687.956787,917.416687 2687.618164,914.863464 2687.614258,912.309692 
	C2687.575439,885.646729 2687.642578,858.983459 2687.533936,832.320862 
	C2687.517822,828.385376 2686.802246,824.445435 2686.309082,820.520325 
	C2683.379395,797.192932 2666.317627,782.807556 2641.714111,781.839355 
	C2605.048340,780.396423 2579.282227,802.665588 2577.879639,843.735657 
	C2577.106689,866.372864 2577.752930,889.058105 2577.723389,911.721680 
	C2577.719971,914.326294 2577.485840,916.930664 2577.338135,919.952881 
	C2574.349121,919.952881 2571.810791,919.952881 2568.259521,919.952881 
	C2568.259521,878.864868 2568.259521,837.952454 2568.259521,796.050781 
z"/>
<path fill="#0A0A0A" opacity="1.000000" stroke="none" 
	d="
M1735.614990,784.261719 
	C1735.646973,780.634521 1735.645508,777.969421 1735.735962,775.307556 
	C1735.757202,774.681580 1736.089233,774.066162 1736.454224,772.868591 
	C1739.054565,772.868591 1741.824951,772.868591 1745.230347,772.868591 
	C1745.397217,775.922058 1745.690674,778.831238 1745.694336,781.740784 
	C1745.729370,809.398315 1745.665527,837.055969 1745.735718,864.713318 
	C1745.772217,879.043884 1750.328735,891.585205 1761.709839,900.816101 
	C1772.583252,909.635193 1785.336792,911.517944 1799.021362,910.602051 
	C1812.487305,909.700745 1824.238281,905.403748 1834.203247,896.261475 
	C1843.641113,887.602966 1848.975830,876.628052 1851.401978,864.336121 
	C1852.805786,857.224121 1853.437378,849.863464 1853.519287,842.604553 
	C1853.778564,819.636475 1853.615112,796.663574 1853.615112,772.988342 
	C1856.422241,772.760742 1858.825195,772.565857 1861.832642,772.321960 
	C1861.832642,821.788818 1861.832642,870.596802 1861.832642,919.886475 
	C1859.230835,919.886475 1856.799927,919.886475 1853.668701,919.886475 
	C1853.668701,909.652527 1853.668701,899.832764 1853.668701,887.754761 
	C1851.426147,890.655518 1850.434448,891.735413 1849.669922,892.957336 
	C1829.833862,924.657410 1785.902954,925.543579 1763.347778,913.866150 
	C1746.262573,905.020752 1738.163330,889.806824 1736.382324,871.141541 
	C1735.593994,862.880188 1735.684326,854.520813 1735.645752,846.204712 
	C1735.551758,825.878540 1735.615112,805.551636 1735.614990,784.261719 
z"/>
<path fill="#0F0F0F" opacity="1.000000" stroke="none" 
	d="
M1936.406372,796.255371 
	C1911.645630,816.790161 1909.752197,852.437073 1919.762939,874.215820 
	C1929.068726,894.460938 1944.832031,906.561157 1966.783569,910.080017 
	C1990.009155,913.803101 2009.919434,906.778015 2026.765259,889.793945 
	C2028.808350,891.621338 2030.709839,893.322021 2032.548096,894.966125 
	C2020.008545,918.604187 1970.244873,931.565857 1935.672729,908.346619 
	C1900.775391,884.908997 1895.486084,831.488098 1919.635742,799.387207 
	C1944.173828,766.769775 1998.962646,762.265259 2030.079224,792.878418 
	C2028.531616,795.035034 2026.899292,797.309692 2024.926392,800.059082 
	C1996.333740,777.868530 1967.133179,774.236389 1936.406372,796.255371 
z"/>
<path fill="#050505" opacity="1.000000" stroke="none" 
	d="
M2271.977783,784.357605 
	C2261.335205,784.357605 2251.681396,784.357605 2241.164795,784.357605 
	C2240.879395,787.095581 2240.395996,789.597778 2240.391357,792.100891 
	C2240.338135,821.083008 2240.219971,850.066467 2240.477539,879.046387 
	C2240.526855,884.590027 2241.512207,890.310791 2243.146240,895.617126 
	C2246.851807,907.650635 2255.898438,912.725342 2268.474609,910.368835 
	C2272.357178,909.641418 2276.261963,908.661072 2279.916016,907.196838 
	C2283.253662,905.859497 2286.266357,903.711304 2290.038086,901.571106 
	C2291.861572,903.814819 2293.668945,906.038574 2295.556152,908.360535 
	C2294.456543,909.382629 2293.828857,910.096130 2293.079590,910.643188 
	C2284.822754,916.671509 2275.701904,920.177124 2265.362305,920.375854 
	C2246.421631,920.739929 2235.491211,911.849243 2232.270752,893.029724 
	C2231.658203,889.450500 2231.673584,885.737061 2231.667725,882.085083 
	C2231.622803,853.103027 2231.642822,824.120728 2231.642822,795.138550 
	C2231.642822,791.892517 2231.642822,788.646423 2231.642822,784.764771 
	C2224.188232,784.764771 2217.633545,784.764771 2210.431885,784.764771 
	C2210.118164,781.740356 2209.864502,779.296509 2209.501953,775.801270 
	C2216.888428,775.801270 2223.704346,775.801270 2231.444336,775.801270 
	C2231.444336,763.685364 2231.444336,752.514832 2231.444336,740.848999 
	C2234.558838,740.848999 2236.716553,740.848999 2239.869141,740.848999 
	C2239.869141,751.750122 2239.869141,762.929504 2239.869141,775.114258 
	C2257.548340,775.114258 2274.344727,775.114258 2291.787109,775.114258 
	C2291.970459,778.516235 2292.101318,780.938904 2292.285645,784.357605 
	C2285.448242,784.357605 2279.207520,784.357605 2271.977783,784.357605 
z"/>
<path fill="#010101" opacity="1.000000" stroke="none" 
	d="
M2337.407227,773.203125 
	C2338.113770,801.887207 2338.254150,829.862976 2338.324707,857.838867 
	C2338.375977,878.152405 2338.334473,898.466248 2338.334473,919.512451 
	C2335.793701,919.834900 2333.364258,920.143188 2330.266602,920.536255 
	C2330.266602,871.143616 2330.266602,822.346375 2330.266602,772.839417 
	C2332.438721,772.725037 2334.625000,772.609924 2337.407227,773.203125 
z"/>
<path fill="#0F0F0F" opacity="1.000000" stroke="none" 
	d="
M2338.587646,740.442871 
	C2332.831299,743.006104 2328.842041,741.641479 2325.884033,737.119995 
	C2323.661865,733.723511 2323.687988,730.422791 2326.038330,726.947998 
	C2328.839600,722.806885 2332.882568,723.185913 2336.761230,723.913269 
	C2340.998779,724.708008 2342.864502,728.037720 2342.277588,732.077393 
	C2341.878906,734.820740 2340.324707,737.396057 2338.587646,740.442871 
z"/>
<path fill="#FDFDFD" opacity="1.000000" stroke="none" 
	d="
M415.650085,367.533691 
	C412.486511,367.945068 410.125397,368.023773 407.879242,368.572876 
	C392.669891,372.290894 384.565979,381.140717 382.419281,396.758759 
	C381.742828,401.680237 381.701691,406.715912 381.700043,411.699402 
	C381.662750,524.982727 381.671356,638.265991 381.671356,751.549316 
	C381.671356,755.160034 381.671326,758.770752 381.671326,763.023621 
	C322.607391,763.023621 264.226074,763.023621 205.844788,763.023621 
	C205.832809,762.922180 205.820831,762.820740 205.808853,762.719299 
	C213.291565,761.919373 220.784927,761.205750 228.252655,760.284302 
	C232.185104,759.799194 236.102127,759.085693 239.975327,758.242126 
	C253.583679,755.278198 261.175110,746.405457 263.597656,733.083496 
	C264.777832,726.593445 265.566071,719.930176 265.574097,713.344116 
	C265.695831,613.388428 265.702911,513.432434 265.562469,413.476776 
	C265.552765,406.562347 264.889069,399.475861 263.273071,392.772247 
	C259.796570,378.350708 254.144867,371.635468 233.554733,368.002533 
	C225.778046,366.630402 217.720627,366.860046 209.794022,366.317871 
	C208.219345,366.210175 206.657669,365.912598 205.159744,364.408020 
	C280.661163,364.408020 356.162598,364.408020 431.664032,364.408020 
	C431.700745,364.776459 431.737427,365.144867 431.774139,365.513306 
	C426.684692,366.148438 421.595215,366.783569 415.650085,367.533691 
z"/>
<path fill="#FDFDFD" opacity="1.000000" stroke="none" 
	d="
M442.604919,763.673828 
	C438.759277,763.673828 435.836487,763.673828 433.218964,763.673828 
	C431.726227,759.212891 433.352203,758.239136 436.664948,757.581055 
	C448.018311,755.325378 459.465332,753.267517 470.556335,750.035095 
	C484.024536,746.109802 496.297211,739.710266 506.751770,729.904175 
	C519.694519,717.764160 526.710144,702.651489 529.708740,685.629211 
	C534.152344,660.403320 532.005859,635.300354 525.341431,610.771912 
	C516.561707,578.458130 506.768372,546.420959 497.614258,514.207031 
	C495.045227,505.166443 491.765411,497.329102 480.592682,496.352112 
	C526.854004,496.352112 573.115356,496.352112 620.740417,496.352112 
	C618.886841,497.368347 618.058350,498.164764 617.150879,498.268219 
	C605.245178,499.625824 598.164551,506.347046 601.069336,522.828430 
	C604.449829,542.009216 609.980835,560.840576 615.126831,579.673767 
	C622.730347,607.501343 630.917480,635.169250 638.587219,662.979309 
	C639.692078,666.985352 640.437012,671.704163 639.416687,675.585144 
	C631.748718,704.752563 623.596252,733.792603 615.374756,763.673828 
	C557.972900,763.673828 500.750366,763.673828 442.604919,763.673828 
z"/>
<path fill="#FDFDFD" opacity="1.000000" stroke="none" 
	d="
M754.303467,530.966797 
	C766.552795,575.290222 778.699829,618.737549 791.007080,662.139404 
	C792.388184,667.009644 793.225708,671.632629 791.827759,676.644165 
	C784.071899,704.446533 776.436646,732.282410 768.740356,760.101440 
	C768.476135,761.056824 768.004211,761.954773 767.471313,763.268311 
	C752.705811,763.268311 737.810913,763.268311 722.014832,763.268311 
	C718.212219,750.284851 714.274536,736.994141 710.427002,723.677307 
	C690.165588,653.548645 669.900696,583.420898 649.713379,513.270935 
	C647.175354,504.451355 643.817932,496.865295 630.101501,498.411438 
	C638.737427,495.205383 759.520447,494.619171 771.410522,496.775970 
	C754.045227,503.102722 753.195984,504.393372 753.692688,524.120483 
	C753.742798,526.109497 754.056763,528.091858 754.303467,530.966797 
z"/>
<path fill="#FCFCFC" opacity="1.000000" stroke="none" 
	d="
M986.209839,698.192810 
	C1001.553711,724.711853 985.704102,759.535461 952.392151,763.312256 
	C931.750610,765.652588 910.513306,751.957153 906.096436,728.190735 
	C901.636414,704.191711 916.298157,682.981018 939.855896,677.163025 
	C954.234192,673.612061 975.702820,680.060303 986.209839,698.192810 
z"/>
<path fill="#F9F9F9" opacity="1.000000" stroke="none" 
	d="
M809.659180,501.844543 
	C802.982361,500.086578 797.045959,498.539825 791.109619,496.993073 
	C791.125244,496.755310 791.140869,496.517548 791.156494,496.279785 
	C824.604309,496.279785 858.052124,496.279785 893.799377,496.279785 
	C864.130798,504.470520 861.048035,504.505829 839.413269,542.121155 
	C836.223328,542.121155 832.925903,542.121155 829.065979,542.121155 
	C827.155884,526.710144 827.131897,510.349945 809.659180,501.844543 
z"/>
<path fill="#FDFDFD" opacity="1.000000" stroke="none" 
	d="
M3308.333008,478.000183 
	C3308.333008,495.645935 3308.100586,512.296814 3308.465820,528.934509 
	C3308.585205,534.381958 3306.456543,537.413025 3302.103760,540.129517 
	C3285.872559,550.258850 3266.907227,544.413513 3260.687500,526.317139 
	C3255.248535,510.492218 3256.465332,494.169983 3260.786621,478.232391 
	C3264.866699,463.185211 3273.087646,450.438568 3284.054199,439.357880 
	C3291.758545,431.573547 3299.144775,423.474182 3306.795898,415.385345 
	C3306.752441,415.374664 3307.085205,415.401611 3307.361816,415.540466 
	C3307.615723,415.668121 3308.000977,415.914948 3308.002197,416.111328 
	C3308.132568,436.407471 3308.231689,456.703827 3308.333008,478.000183 
z"/>
<path fill="#F9F9F9" opacity="1.000000" stroke="none" 
	d="
M1857.915039,542.896484 
	C1852.886230,543.645264 1848.603027,544.316467 1844.321045,544.310425 
	C1834.725220,544.296753 1828.131226,539.437683 1823.770752,531.040344 
	C1817.336792,518.649841 1817.292725,505.343994 1818.871216,492.132599 
	C1821.446167,470.580383 1831.308350,452.522278 1846.949097,437.432648 
	C1854.333740,430.308167 1861.093994,422.536774 1869.005005,414.137207 
	C1869.283447,417.495453 1869.658447,419.928253 1869.661133,422.361481 
	C1869.699463,456.666779 1869.341919,490.977936 1869.916870,525.273621 
	C1870.070923,534.464722 1866.872803,539.669067 1857.915039,542.896484 
z"/>
<path fill="#FCFCFC" opacity="1.000000" stroke="none" 
	d="
M2553.990723,394.330109 
	C2539.724365,394.330109 2526.457275,394.330109 2512.446777,394.330109 
	C2514.834961,365.527679 2515.763184,337.430389 2526.263184,310.916565 
	C2528.316406,305.732544 2531.135498,300.626923 2534.586426,296.264038 
	C2544.520752,283.704010 2558.305176,284.994507 2566.115234,298.962097 
	C2568.212158,302.711884 2570.251953,306.646118 2571.393799,310.752686 
	C2578.910400,337.786194 2580.410889,365.458160 2580.257080,394.330109 
	C2571.437256,394.330109 2563.213623,394.330109 2553.990723,394.330109 
z"/>
<path fill="#FDFDFD" opacity="1.000000" stroke="none" 
	d="
M1602.676025,911.599365 
	C1594.794067,909.743713 1587.478149,908.639893 1580.831787,905.907471 
	C1549.209106,892.907166 1536.862183,855.342896 1547.297363,823.786499 
	C1556.466553,796.058472 1582.537598,781.676941 1607.092285,781.318420 
	C1636.415405,780.890259 1661.967407,800.048645 1669.199097,827.605713 
	C1677.324097,858.566101 1665.900513,889.038208 1639.026245,903.904968 
	C1628.114014,909.941528 1616.098633,912.364502 1602.676025,911.599365 
z"/>
<path fill="#FCFCFC" opacity="1.000000" stroke="none" 
	d="
M2129.998535,847.724365 
	C2140.944336,847.724365 2150.892090,847.724365 2161.071289,847.724365 
	C2167.904297,866.864319 2161.316895,881.638123 2148.267578,895.363831 
	C2134.396240,909.954041 2099.759033,916.064087 2081.581787,906.036743 
	C2074.314209,902.027771 2068.843994,896.677124 2065.907227,888.844116 
	C2059.980469,873.035278 2065.984863,858.299988 2081.881104,852.400208 
	C2089.182373,849.690430 2097.257080,848.626648 2105.082031,847.888916 
	C2112.989746,847.143433 2121.022461,847.724426 2129.998535,847.724365 
z"/>
<path fill="#FDFDFD" opacity="1.000000" stroke="none" 
	d="
M2468.744385,909.443970 
	C2453.309814,912.047668 2439.094971,911.453979 2425.407227,904.885925 
	C2400.051758,892.719116 2389.554443,869.210022 2390.008789,844.167786 
	C2390.261475,830.223755 2394.103516,817.109314 2402.746338,806.140747 
	C2419.646484,784.693298 2442.186523,778.325806 2468.441406,783.459900 
	C2499.241699,789.483032 2517.129639,819.099854 2516.544434,844.780640 
	C2515.987549,869.215454 2508.011230,888.857788 2486.887695,901.934082 
	C2481.613525,905.198975 2475.362793,906.885986 2468.744385,909.443970 
z"/>
</svg>